<?xml version="1.0" encoding="UTF-8"?>
<!-- Generator: Adobe Illustrator 24.1.1, SVG Export Plug-In . SVG Version: 6.00 Build 0)  -->
<svg version="1.1" id="Layer_1" xmlns="http://www.w3.org/2000/svg" xmlns:xlink="http://www.w3.org/1999/xlink" x="0px" y="0px" viewBox="0 0 155 41" style="enable-background:new 0 0 155 41;" xml:space="preserve">
<style type="text/css">
	.st0{fill:#242424;}
	.st1{fill:#0B3C5F;}
</style>
<g>
	<g>
		<g>
			<g>
				<path class="st0" d="M7.2,17.7V1.4h4.7v12.3h10.7v4H7.2z"/>
				<path class="st0" d="M25.1,17.7l9.1-16.3h6.6l8.8,16.3h-5.3l-1.6-2.9H32.2l-1.5,2.9H25.1z M34,11.4h6.9l-3.5-6.5L34,11.4z"/>
				<path class="st0" d="M51.4,17.7V1.4h14.4c1.7,0,2.9,0.2,3.7,0.6c1.2,0.6,1.8,1.9,1.8,3.7c0,1.4-0.3,2.4-1,3      c-0.4,0.3-1.1,0.6-2.1,0.7c1.3,0.1,2.1,0.4,2.6,0.7c0.8,0.5,1.1,1.6,1.1,3.1c0,1.9-0.6,3.2-1.8,3.9c-0.7,0.4-1.9,0.6-3.6,0.6      H51.4z M56.1,7.9h8.1c0.8,0,1.3-0.1,1.6-0.2c0.4-0.2,0.6-0.6,0.6-1.2c0-0.7-0.3-1.1-0.9-1.3C65.4,5,64.9,5,64.2,5h-8V7.9z       M56.1,14h8.7c0.7,0,1.2,0,1.5-0.1c0.5-0.2,0.8-0.6,0.8-1.3c0-0.7-0.3-1.2-0.8-1.4c-0.2-0.1-0.7-0.1-1.6-0.1h-8.6V14z"/>
				<path class="st0" d="M72.6,17.7l9.1-16.3h6.6l8.9,16.3h-5.4l-1.6-2.9H79.8l-1.6,2.9H72.6z M81.6,11.4h7L85,4.9L81.6,11.4z"/>
				<path class="st0" d="M98.9,17.7V1.4h14.2c1.4,0,2.7,0.1,3.7,0.3c1.5,0.3,2.6,1,3.3,2.2c0.6,1,0.8,2.9,0.8,5.7c0,1.8,0,3-0.1,3.6      c-0.4,2.6-1.7,4-4,4.4c-0.6,0.1-1.6,0.1-3,0.1H98.9z M103.9,13.8h8.4c0.9,0,1.6-0.1,2-0.2c0.7-0.2,1.2-0.8,1.4-1.7      c0.1-0.4,0.1-1.2,0.1-2.3c0-1.6-0.2-2.7-0.5-3.2c-0.5-0.6-1.4-1-3-1h-8.5V13.8z"/>
				<path class="st0" d="M122.8,17.7V1.4h4.7v16.3H122.8z"/>
				<path class="st0" d="M129.7,1.4h18v3.7h-13.1v2.8h12.4v3.2h-12.4V14h13.3v3.7h-18.2V1.4z"/>
			</g>
		</g>
	</g>
	<g>
		<path class="st1" d="M13.9,21.4v4.9h0c0.3-0.5,0.7-0.9,1.2-1.1c0.5-0.2,1.2-0.4,1.8-0.4c0.7,0,1.4,0.1,1.9,0.4    c0.5,0.3,1,0.6,1.4,1.1c0.4,0.5,0.6,1,0.8,1.6c0.2,0.6,0.3,1.2,0.3,1.9c0,0.7-0.1,1.3-0.3,1.9c-0.2,0.6-0.4,1.1-0.8,1.6    c-0.4,0.4-0.8,0.8-1.4,1.1c-0.5,0.3-1.2,0.4-1.9,0.4c-0.2,0-0.5,0-0.8-0.1c-0.3,0-0.6-0.1-0.9-0.2c-0.3-0.1-0.5-0.3-0.8-0.4    c-0.3-0.2-0.5-0.4-0.6-0.7h0v1.3h-1.6V21.4H13.9z M19.5,28.4c-0.1-0.4-0.3-0.8-0.5-1.1c-0.2-0.3-0.5-0.6-0.9-0.8    c-0.4-0.2-0.8-0.3-1.3-0.3c-0.5,0-1,0.1-1.3,0.3c-0.4,0.2-0.7,0.5-0.9,0.8c-0.2,0.3-0.4,0.7-0.5,1.1c-0.1,0.4-0.2,0.9-0.2,1.3    c0,0.5,0.1,0.9,0.2,1.3c0.1,0.4,0.3,0.8,0.5,1.1c0.2,0.3,0.5,0.6,0.9,0.8c0.4,0.2,0.8,0.3,1.4,0.3c0.5,0,1-0.1,1.3-0.3    c0.4-0.2,0.6-0.5,0.9-0.8c0.2-0.3,0.4-0.7,0.5-1.2c0.1-0.4,0.1-0.9,0.1-1.4C19.6,29.2,19.6,28.8,19.5,28.4z"/>
		<path class="st1" d="M27.2,35.7c-0.2,0.5-0.4,0.9-0.5,1.2c-0.2,0.3-0.4,0.6-0.6,0.8c-0.2,0.2-0.5,0.3-0.7,0.4    c-0.3,0.1-0.6,0.1-0.9,0.1c-0.2,0-0.4,0-0.5,0c-0.2,0-0.4-0.1-0.5-0.1v-1.4c0.1,0.1,0.3,0.1,0.5,0.2c0.2,0,0.3,0.1,0.4,0.1    c0.3,0,0.6-0.1,0.8-0.2c0.2-0.2,0.4-0.4,0.5-0.6l0.6-1.6L22.5,25h1.8l2.8,7.7h0l2.7-7.7h1.6L27.2,35.7z"/>
	</g>
	<g>
		<path class="st1" d="M141.9,39.6c-33.3,0-66.6,0-100,0c0-6.2,0-12.3,0-18.5c33.3,0,66.7,0,100,0C141.9,27.3,141.9,33.4,141.9,39.6    z M64.7,27.6c3.6,0,7.1,0,10.6,0c0-0.9,0-1.7,0-2.5c-4.4,0-8.8,0-13.2,0c0,3.7,0,7.4,0,11.1c0.3,0,0.5,0,0.7,0c2.8,0,5.5,0,8.3,0    c1.3,0,2.5,0,3.8,0c0.5,0,0.4,0,0.4-0.2c0-0.9,0-1.7,0-2.6c-3.6,0-7.1,0-10.6,0c0-0.5,0-1,0-1.6c3.1,0,6.1,0,9.1,0    c0-0.9,0-1.7,0-2.6c-3.1,0-6.1,0-9.2,0C64.7,28.6,64.7,28.2,64.7,27.6z M78.4,25.1c0,3.7,0,7.4,0,11.1c0.9,0,1.8,0,2.8,0    c0-1.4,0-2.8,0-4.2c1.7,0,3.4,0,5.1,0c0.5,0,0.7,0.2,1,0.5c0.7,1.1,1.5,2.3,2.2,3.4c0.1,0.1,0.3,0.3,0.4,0.3c0.9,0,1.7,0,2.7,0    c-1-1.4-2-2.8-2.9-4.1c0.5-0.2,1.1-0.3,1.5-0.6c1.3-0.8,1.9-2.6,1.5-4C92.3,25.9,91,25,89.3,25c-3.4,0-6.9,0-10.3,0    C78.8,25,78.6,25,78.4,25.1z M108.7,36.1c0-3.7,0-7.4,0-11.1c-0.9,0-1.7,0-2.6,0c-0.1,0-0.3,0.1-0.4,0.3c-0.9,1.5-1.8,2.9-2.7,4.4    c-0.4,0.7-0.9,1.4-1.3,2.2c-1.4-2.2-2.7-4.3-4-6.4c-0.1-0.2-0.2-0.4-0.4-0.4c-0.9,0-1.8,0-2.7,0c0,3.8,0,7.4,0,11.1    c1,0,1.9,0,2.9,0c0-2.3,0-4.5,0-6.7c0,0,0.1,0,0.1,0c1.3,2.2,2.7,4.5,4.1,6.8c1.4-2.2,2.8-4.4,4.2-6.6c0,0,0.1,0,0.1,0    c0,2.2,0,4.4,0,6.6C106.9,36.1,107.8,36.1,108.7,36.1z M45.7,25.1c0,3.7,0,7.4,0,11.1c0.8,0,1.6,0,2.5,0c0-1.4,0-2.9,0-4.3    c3.1,0,6.2,0,9.3,0c0-0.9,0-1.7,0-2.6c-3.1,0-6.2,0-9.3,0c0-0.6,0-1.1,0-1.6c3.5,0,7,0,10.6,0c0-0.9,0-1.7,0-2.5    C54.5,25.1,50.1,25.1,45.7,25.1z M109.9,36.2c0.6,0,1.1,0,1.6,0c0.3,0,1.2,0.1,1.6-0.1c0.4-0.3,0.5-0.9,0.7-1.4    c0.1-0.4,0.4-0.5,0.8-0.5c1.5,0,2.9,0,4.4,0c0.4,0,0.7,0.1,0.8,0.5c0.2,0.4,0.4,0.8,0.6,1.2c0.1,0.1,0.2,0.3,0.4,0.3    c0.9,0,1.8,0,2.8,0c-0.1-0.2-0.1-0.4-0.1-0.5c-1.4-3.4-2.8-6.9-4.2-10.3c-0.1-0.2-0.4-0.3-0.5-0.3c-1.2,0-2.5,0-3.7,0    c-0.3,0-0.5,0.1-0.6,0.4c-1.1,2.8-2.2,5.5-3.4,8.3C110.6,34.5,110.3,35.3,109.9,36.2z M138.1,25c-1,0-1.9,0-2.8,0    c-0.2,0-0.5,0.1-0.7,0.3c-1.1,1.1-2.2,2.1-3.4,3.3c-0.1-0.2-0.3-0.4-0.5-0.6c-0.8-0.9-1.6-1.8-2.5-2.7c-0.1-0.1-0.3-0.3-0.5-0.3    c-1,0-2,0-3.1,0c1.7,1.9,3.4,3.6,5,5.4c-1.7,1.9-3.4,3.8-5.2,5.8c0.8,0,1.5,0,2.2,0c0.7,0,1.2-0.2,1.7-0.7c1-1,2-2,3.1-3.1    c0.9,0.9,1.8,1.8,2.6,2.7c0.6,0.7,1.2,1,2.3,1c0.6,0,1.2,0,1.8,0c-1.8-2-3.5-3.9-5.2-5.8C134.7,28.6,136.4,26.9,138.1,25z"/>
		<path class="st1" d="M81.2,27.6c0.2,0,0.4,0,0.6,0c2.4,0,4.8,0,7.2,0c0.6,0,1.1,0.4,1.1,0.9c0,0.5-0.4,0.9-1.1,0.9    c-2.4,0-4.9,0-7.3,0c-0.2,0-0.3,0-0.5,0C81.2,28.7,81.2,28.2,81.2,27.6z"/>
		<path class="st1" d="M114.7,32.3c0.7-1.7,1.3-3.5,2-5.3c0.8,1.9,1.4,3.6,2.2,5.3C117.5,32.3,116.1,32.3,114.7,32.3z"/>
	</g>
</g>
</svg>